<?xml version="1.0" encoding="UTF-8"?>
<svg version="1.1" xmlns="http://www.w3.org/2000/svg" width="86" height="28">
<path d="M0 0 C-0.33 2.64 -0.66 5.28 -1 8 C-1.66 8 -2.32 8 -3 8 C-3.3403125 6.7934375 -3.3403125 6.7934375 -3.6875 5.5625 C-4.74834038 2.76560716 -4.74834038 2.76560716 -7.5 2.125 C-9.99906947 1.79481757 -9.99906947 1.79481757 -12 3 C-12 4.98 -12 6.96 -12 9 C-11.13375 9.226875 -10.2675 9.45375 -9.375 9.6875 C-5.20757779 11.30816419 -3.09440831 12.75823891 0 16 C0.625 19.0625 0.625 19.0625 0 22 C-1.8670991 24.30275556 -3.35647741 25.67823871 -6 27 C-8.04055005 27.07065617 -10.08334257 27.08421976 -12.125 27.0625 C-13.22070312 27.05347656 -14.31640625 27.04445313 -15.4453125 27.03515625 C-16.70988281 27.01775391 -16.70988281 27.01775391 -18 27 C-18 24.03 -18 21.06 -18 18 C-17.01 18 -16.02 18 -15 18 C-14.690625 19.2065625 -14.690625 19.2065625 -14.375 20.4375 C-13.92125 21.283125 -13.4675 22.12875 -13 23 C-10.22841653 23.75063719 -7.85785481 24 -5 24 C-4.54573675 21.14506217 -4.54573675 21.14506217 -5 18 C-7.37330127 16.00240213 -7.37330127 16.00240213 -10.4375 14.5625 C-15.8301837 11.4103894 -15.8301837 11.4103894 -17.5 7.375 C-17 4 -17 4 -15.3125 1 C-10.26339218 -2.04851793 -5.65557039 -0.9110249 0 0 Z " fill="#19191A" transform="translate(18,1)"/>
<path d="M0 0 C2.5625 0.1875 2.5625 0.1875 4.5625 2.1875 C5.2225 1.5275 5.8825 0.8675 6.5625 0.1875 C9.5625 -0.125 9.5625 -0.125 12.5625 0.1875 C14.98380331 3.81945496 14.77272785 5.57099348 14.6875 9.875 C14.66945313 11.05449219 14.65140625 12.23398437 14.6328125 13.44921875 C14.60960938 14.35285156 14.58640625 15.25648437 14.5625 16.1875 C14.8925 15.5275 15.2225 14.8675 15.5625 14.1875 C16.2225 14.1875 16.8825 14.1875 17.5625 14.1875 C16.9025 15.8375 16.2425 17.4875 15.5625 19.1875 C13.5825 19.1875 11.6025 19.1875 9.5625 19.1875 C9.37798975 7.66585991 9.37798975 7.66585991 10.5625 2.1875 C7.50197172 2.85302655 7.50197172 2.85302655 6.4296875 5.0078125 C4.36855046 9.79549304 3.00518913 13.98590275 2.5625 19.1875 C1.2425 19.1875 -0.0775 19.1875 -1.4375 19.1875 C-1.4375 13.9075 -1.4375 8.6275 -1.4375 3.1875 C-1.7675 4.1775 -2.0975 5.1675 -2.4375 6.1875 C-3.0975 6.1875 -3.7575 6.1875 -4.4375 6.1875 C-3.3735 0.2595 -3.3735 0.2595 0 0 Z " fill="#19191A" transform="translate(42.4375,7.8125)"/>
<path d="M0 0 C0 5.28 0 10.56 0 16 C0.33 15.34 0.66 14.68 1 14 C1.66 14 2.32 14 3 14 C2.34 15.65 1.68 17.3 1 19 C-1.375 19.125 -1.375 19.125 -4 19 C-4.66 18.34 -5.32 17.68 -6 17 C-6.66 17.66 -7.32 18.32 -8 19 C-11 19.25 -11 19.25 -14 19 C-16.38370909 16.61629091 -16.29588602 16.0063401 -16.3125 12.75 C-16.21681411 8.50564713 -15.37100824 5.60041992 -13 2 C-8.61501596 -0.92332269 -5.2225328 -0.1356502 0 0 Z M-10.8125 3.9375 C-12.4006298 8.03320318 -12.25521755 11.66130162 -12 16 C-10.68 16 -9.36 16 -8 16 C-4.53585941 9.33356259 -4.53585941 9.33356259 -4 2 C-7.29149002 1.55520405 -8.48514425 1.44963696 -10.8125 3.9375 Z " fill="#19191A" transform="translate(77,8)"/>
<path d="M0 0 C2.4845467 0.08101783 3.80355313 0.17049688 6 1.375 C7.91818728 4.87287092 8.57680488 8.34627289 7.5546875 12.25390625 C6.18387514 15.70979635 5.1968615 17.22292566 2.0625 19.3125 C-1.77443587 19.73107482 -4.04953064 19.85894269 -7.375 17.8125 C-9.53764377 14.35226997 -9.60011131 11.2335999 -8.9375 7.3125 C-6.70033211 2.63478532 -5.34134774 0.42391649 0 0 Z M-3.6875 3.8125 C-5.54351353 7.52452706 -5.26618784 10.17103326 -4.9375 14.3125 C-3.9475 15.7975 -3.9475 15.7975 -2.9375 17.3125 C-1.2875 16.9825 0.3625 16.6525 2.0625 16.3125 C3.77334699 10.79977081 4.5231443 7.78059845 2.0625 2.3125 C-1.81547662 1.87863908 -1.81547662 1.87863908 -3.6875 3.8125 Z " fill="#19191A" transform="translate(28.9375,7.6875)"/>
<path d="M0 0 C1.98 0.495 1.98 0.495 4 1 C3.67 2.65 3.34 4.3 3 6 C1.68 5.67 0.36 5.34 -1 5 C-0.67 3.35 -0.34 1.7 0 0 Z " fill="#DFA974" transform="translate(82,22)"/>
</svg>
